<svg width="68" height="70" viewBox="0 0 68 70" fill="none" xmlns="http://www.w3.org/2000/svg">
<g clip-path="url(#clip0_11_214)">
<path d="M60.775 41.7521C60.3698 42.5688 59.8286 43.3038 59.1741 43.925C58.2566 44.7865 57.1974 45.4729 56.0461 45.9521C53.1913 47.0168 50.0615 47.0003 47.2175 45.9054C45.8637 45.3682 44.6298 44.5542 43.5901 43.5126C42.5504 42.4709 41.7266 41.2231 41.1683 39.8446C41.028 39.5083 40.9051 39.1646 40.8 38.815H61.8176C61.5918 39.8363 61.2415 40.8242 60.775 41.755V41.7521ZM26.8033 39.8446C26.2449 41.2226 25.4214 42.4699 24.3822 43.5115C23.3431 44.5532 22.1099 45.3675 20.757 45.9054C17.9121 47.001 14.7811 47.0175 11.9255 45.9521C10.7744 45.4724 9.71526 44.7861 8.79745 43.925C8.14405 43.3038 7.60299 42.5681 7.19945 41.7521C6.73226 40.8236 6.38189 39.8376 6.15679 38.8179H27.1716C27.064 39.1679 26.945 39.5121 26.8033 39.8446ZM67.8895 34.7171C67.8402 34.2507 67.7626 33.788 67.6571 33.3317L40.3608 33.3083C40.6509 30.7124 41.7934 28.2963 43.5993 26.46C44.6278 25.4392 45.8376 24.6371 47.1693 24.1004C49.3073 23.156 51.6773 22.9173 53.9526 23.4172C56.228 23.9171 58.2967 25.131 59.874 26.8917L64.1834 22.5458C62.6554 20.8511 60.8006 19.503 58.7378 18.5879C56.4577 17.6012 54.0028 17.1145 51.5298 17.1588C49.1959 17.1439 46.8815 17.5966 44.7156 18.4917C42.6425 19.3447 40.7527 20.6093 39.1538 22.2133C37.5604 23.8332 36.2857 25.7545 35.3996 27.8717C34.672 29.5968 34.2259 31.4337 34.0793 33.3083H33.9008C33.7538 31.4325 33.3067 29.5946 32.5776 27.8688C31.692 25.7522 30.4172 23.8318 28.8235 22.2133C27.2249 20.6089 25.335 19.3442 23.2616 18.4917C18.7478 16.6779 13.7309 16.7103 9.23945 18.5821C7.17744 19.4999 5.32378 20.8498 3.79662 22.5458L8.10329 26.8917C9.7233 25.1977 11.7904 24.0301 14.0486 23.5335C16.3068 23.0368 18.6569 23.2329 20.808 24.0975C22.1396 24.6342 23.3523 25.4392 24.378 26.46C25.4206 27.51 26.248 28.77 26.8118 30.1583C27.2255 31.1617 27.4975 32.2233 27.6193 33.3083L0.320121 33.3317C0.106692 34.317 -0.000676999 35.3234 -4.56167e-05 36.3329C-0.0121436 38.4425 0.318238 40.5392 0.977454 42.5367C1.62547 44.475 2.66882 46.2481 4.03745 47.7371C5.53345 49.3704 7.35245 50.6538 9.36412 51.5083C11.6196 52.4331 14.0314 52.8862 16.4588 52.8413C18.7935 52.8558 21.1055 52.4038 23.2701 51.5083C25.3452 50.6562 27.2363 49.3905 28.8348 47.7838C31.2439 45.3375 32.9046 42.2186 33.6118 38.8121H34.3853C35.0942 42.2189 36.7545 45.3382 39.1623 47.7867C40.7612 49.3921 42.6522 50.6568 44.727 51.5083C46.8928 52.4038 49.2072 52.8565 51.5411 52.8413C53.9666 52.8857 56.3765 52.4326 58.6301 51.5083C60.6475 50.6553 62.4653 49.3697 63.9625 47.7371C65.331 46.2481 66.3744 44.4749 67.0225 42.5367C67.6803 40.5389 68.0106 38.4423 68 36.3329C67.9937 35.7926 67.9568 35.253 67.8895 34.7171Z" fill="#1F4F22"/>
</g>
<defs>
<clipPath id="clip0_11_214">
<rect width="68" height="70" fill="white"/>
</clipPath>
</defs>
</svg>
